Coordinates
version=1
nRows=38
nColumns=12
inDegrees=yes

Units are S.I. units (second, meters, Newtons, ...)
Angles are in degrees

endheader
time	SC_y	SC_z	SC_x	AC_y	AC_z	AC_x	GH_y	GH_z	GH_yy	EL_x	PS_y
       0.0              -29.97          25.29          10.67          55.03          6.427          4.088         -111.9          66.04         -5.425          70.22          142.6
    0.0283              -29.97          25.29          10.67          55.03          6.427          4.086         -111.9          66.03         -5.408          70.22          142.6
    0.0566              -29.97          25.28          10.68          55.03          6.427          4.084         -111.8          66.02          -5.39          70.23          142.6
    0.0849              -29.97          25.28          10.68          55.03          6.427          4.082         -111.8          66.01         -5.372          70.23          142.5
    0.1132              -29.97          25.27          10.69          55.02          6.427          4.079         -111.8           66.0         -5.352          70.24          142.5
    0.1415              -29.97          25.27           10.7          55.02          6.427          4.076         -111.7          65.98          -5.33          70.24          142.5
    0.1698              -29.96          25.26           10.7          55.02          6.427          4.073         -111.7          65.97         -5.308          70.25          142.5
    0.1981              -29.96          25.26          10.71          55.02          6.427           4.07         -111.7          65.95         -5.283          70.25          142.5
    0.2264              -29.96          25.25          10.72          55.01          6.427          4.067         -111.6          65.94         -5.257          70.26          142.5
    0.2547              -29.96          25.24          10.73          55.01          6.427          4.063         -111.6          65.92         -5.229          70.27          142.5
     0.283              -29.95          25.24          10.74          55.01          6.427           4.06         -111.5           65.9         -5.199          70.27          142.5
    0.3113              -29.95          25.23          10.75           55.0          6.427          4.056         -111.5          65.88         -5.167          70.28          142.5
    0.3396              -29.95          25.22          10.76           55.0          6.428          4.051         -111.4          65.86         -5.132          70.29          142.5
    0.3679              -29.94          25.21          10.77           55.0          6.428          4.046         -111.4          65.84         -5.095           70.3          142.5
    0.3962              -29.94           25.2          10.78          54.99          6.428          4.041         -111.3          65.81         -5.054          70.31          142.5
    0.4245              -29.94          25.19          10.79          54.99          6.428          4.036         -111.3          65.78          -5.01          70.32          142.4
    0.4528              -29.93          25.18          10.81          54.98          6.428          4.029         -111.2          65.75         -4.962          70.33          142.4
    0.4811              -29.93          25.16          10.83          54.98          6.428          4.023         -111.1          65.72          -4.91          70.34          142.4
    0.5094              -29.92          25.15          10.84          54.97          6.429          4.015         -111.0          65.69         -4.853          70.36          142.4
    0.5377              -29.91          25.13          10.86          54.97          6.429          4.008         -110.9          65.65          -4.79          70.37          142.4
     0.566              -29.91          25.12          10.88          54.96          6.429          3.999         -110.8           65.6         -4.722          70.39          142.4
    0.5943               -29.9           25.1          10.91          54.95          6.429          3.989         -110.7          65.56         -4.646          70.41          142.3
    0.6226              -29.89          25.08          10.93          54.94           6.43          3.979         -110.6           65.5         -4.563          70.43          142.3
    0.6509              -29.88          25.05          10.96          54.93           6.43          3.967         -110.5          65.45          -4.47          70.45          142.3
    0.6792              -29.87          25.03          10.99          54.92           6.43          3.954         -110.3          65.38         -4.368          70.47          142.2
    0.7075              -29.86           25.0          11.03          54.91          6.431          3.939         -110.1          65.31         -4.253           70.5          142.2
    0.7358              -29.85          24.97          11.07           54.9          6.431          3.923         -109.9          65.23         -4.125          70.53          142.2
    0.7641              -29.84          24.93          11.11          54.88          6.432          3.904         -109.7          65.14          -3.98          70.56          142.1
    0.7924              -29.82          24.89          11.16          54.86          6.433          3.884         -109.5          65.04         -3.817           70.6          142.1
    0.8207              -29.81          24.84          11.22          54.85          6.433           3.86         -109.2          64.92         -3.632          70.65          142.0
     0.849              -29.79          24.79          11.28          54.82          6.434          3.833         -108.9          64.79         -3.421           70.7          142.0
    0.8773              -29.76          24.73          11.36           54.8          6.435          3.802         -108.5          64.64         -3.178          70.75          141.9
    0.9056              -29.74          24.66          11.44          54.77          6.436          3.767         -108.1          64.46         -2.898          70.82          141.8
    0.9339               -29.7          24.58          11.54          54.74          6.437          3.725         -107.6          64.26         -2.572           70.9          141.7
    0.9622              -29.67          24.48          11.66           54.7          6.439          3.677         -107.0          64.02         -2.191          70.99          141.6
    0.9905              -29.63          24.37           11.8          54.65           6.44          3.619         -106.4          63.74         -1.742           71.1          141.5
     1.019              -29.58          24.24          11.96           54.6          6.442          3.551         -105.6          63.41         -1.209          71.22          141.3
     1.047              -29.52          24.07          12.16          54.53          6.445           3.47         -104.6          63.01        -0.5694          71.37          141.1
